<svg width="48" height="49" viewBox="0 0 48 49" fill="none" xmlns="http://www.w3.org/2000/svg">
<path d="M22.0607 17.5607C22.6464 16.9749 22.6464 16.0251 22.0607 15.4393C21.4749 14.8536 20.5251 14.8536 19.9393 15.4393L11.9393 23.4393C11.6464 23.7322 11.5 24.1161 11.5 24.5C11.5 24.7034 11.5405 24.8973 11.6138 25.0742C11.687 25.2511 11.7955 25.4168 11.9393 25.5607L19.9393 33.5607C20.5251 34.1464 21.4749 34.1464 22.0607 33.5607C22.6464 32.9749 22.6464 32.0251 22.0607 31.4393L16.6213 26H36C36.8284 26 37.5 25.3284 37.5 24.5C37.5 23.6716 36.8284 23 36 23H16.6213L22.0607 17.5607Z" fill="#1A202E"/>
</svg>
