<svg width="42" height="38" viewBox="0 0 42 38" fill="none" xmlns="http://www.w3.org/2000/svg">
<path fill-rule="evenodd" clip-rule="evenodd" d="M23.5271 8.65741C22.185 7.36957 20.066 7.36957 18.7239 8.65741L11.5914 15.5014C11.4167 15.6691 11.2991 15.8875 11.2554 16.1257C10.4012 20.7844 10.3381 25.5538 11.0689 30.2334L11.2424 31.3442H15.8311V21.7684C15.8311 21.1298 16.3488 20.6121 16.9873 20.6121H25.2637C25.9022 20.6121 26.4199 21.1298 26.4199 21.7684V31.3442H31.0086L31.1821 30.2334C31.9129 25.5538 31.8498 20.7844 30.9956 16.1257C30.9519 15.8875 30.8343 15.6691 30.6596 15.5014L23.5271 8.65741ZM17.1228 6.98884C19.3596 4.84243 22.8914 4.84243 25.1282 6.98884L32.2607 13.8328C32.7857 14.3366 33.1389 14.9929 33.2701 15.7086C34.1713 20.6229 34.2378 25.6539 33.4669 30.5902L33.1882 32.3747C33.073 33.1126 32.4374 33.6567 31.6904 33.6567H25.2637C24.6251 33.6567 24.1074 33.139 24.1074 32.5004V22.9246H18.1436V32.5004C18.1436 33.139 17.6259 33.6567 16.9873 33.6567H10.5606C9.81364 33.6567 9.17804 33.1126 9.06279 32.3747L8.78411 30.5902C8.01321 25.6539 8.07973 20.6229 8.98088 15.7086C9.11212 14.9929 9.46529 14.3366 9.99034 13.8328L17.1228 6.98884Z" fill="white"/>
</svg>
