<svg width="38" height="38" viewBox="0 0 38 38" fill="none" xmlns="http://www.w3.org/2000/svg">
<path fill-rule="evenodd" clip-rule="evenodd" d="M21.5271 9.15937C20.185 7.87152 18.066 7.87152 16.7238 9.15937L9.59141 16.0033C9.41666 16.171 9.29911 16.3895 9.25543 16.6277C8.40114 21.2864 8.33808 26.0557 9.0689 30.7354L9.24237 31.8461H13.8311V22.2703C13.8311 21.6318 14.3487 21.1141 14.9873 21.1141H23.2636C23.9022 21.1141 24.4199 21.6318 24.4199 22.2703V31.8461H29.0086L29.1821 30.7354C29.9129 26.0557 29.8498 21.2864 28.9955 16.6277C28.9518 16.3895 28.8343 16.171 28.6595 16.0033L21.5271 9.15937ZM15.1227 7.49079C17.3596 5.34438 20.8913 5.34438 23.1282 7.49079L30.2606 14.3348C30.7857 14.8386 31.1389 15.4948 31.2701 16.2106C32.1713 21.1248 32.2378 26.1558 31.4669 31.0922L31.1882 32.8766C31.0729 33.6146 30.4373 34.1586 29.6904 34.1586H23.2636C22.6251 34.1586 22.1074 33.641 22.1074 33.0024V23.4266H16.1436V33.0024C16.1436 33.641 15.6259 34.1586 14.9873 34.1586H8.56053C7.81362 34.1586 7.17801 33.6146 7.06277 32.8766L6.78409 31.0922C6.01318 26.1558 6.0797 21.1248 6.98085 16.2106C7.1121 15.4948 7.46527 14.8386 7.99032 14.3348L15.1227 7.49079Z" fill="white"/>
</svg>
