<svg width="49" height="49" viewBox="0 0 49 49" fill="none" xmlns="http://www.w3.org/2000/svg">
<path d="M34.0292 11.0459C34.4252 11.4419 34.4252 12.084 34.0292 12.48L33.2849 13.2243C37.732 18.4042 37.5021 26.2164 32.5951 31.1234C30.279 33.4395 27.3157 34.7136 24.2875 34.9458V37.0127H26.6536C27.2137 37.0127 27.6677 37.4667 27.6677 38.0268C27.6677 38.5868 27.2137 39.0408 26.6536 39.0408H19.8932C19.3331 39.0408 18.8791 38.5868 18.8791 38.0268C18.8791 37.4667 19.3331 37.0127 19.8932 37.0127H22.2593V34.9457C19.5467 34.7376 16.886 33.6935 14.696 31.8133L13.9517 32.5575C13.5557 32.9535 12.9136 32.9535 12.5176 32.5575C12.1216 32.1615 12.1216 31.5194 12.5176 31.1234L13.4737 30.1673C14.1435 29.4975 15.1845 29.5317 15.8366 30.1161C17.9485 32.0088 20.6087 32.9555 23.2693 32.9564L23.2734 32.9564L23.2778 32.9564C26.1311 32.9553 28.9841 31.8662 31.161 29.6893C35.3699 25.4804 35.5122 18.744 31.5878 14.3649C31.0034 13.7128 30.9691 12.6719 31.639 12.002L32.5951 11.0459C32.9911 10.6499 33.6332 10.6499 34.0292 11.0459Z" fill="white"/>
<path fill-rule="evenodd" clip-rule="evenodd" d="M14.1468 21.8017C14.1468 16.7612 18.2329 12.6751 23.2734 12.6751C28.3139 12.6751 32.4 16.7612 32.4 21.8017C32.4 26.8422 28.3139 30.9283 23.2734 30.9283C18.2329 30.9283 14.1468 26.8422 14.1468 21.8017ZM23.2734 14.7032C19.353 14.7032 16.1749 17.8813 16.1749 21.8017C16.1749 22.2544 16.2173 22.6973 16.2983 23.1264C16.8545 22.52 17.6534 22.1397 18.5411 22.1397C20.2212 22.1397 21.5833 23.5018 21.5833 25.1819C21.5833 26.429 20.8329 27.5009 19.759 27.9705C20.7952 28.5621 21.9948 28.9002 23.2734 28.9002C26.7122 28.9002 29.58 26.4548 30.2325 23.2082C29.3286 24.5997 27.7605 25.52 25.9776 25.52C23.1773 25.52 20.9072 23.2499 20.9072 20.4496C20.9072 17.6494 23.1773 15.3793 25.9776 15.3793C26.0945 15.3793 26.2105 15.3832 26.3254 15.391C25.4009 14.9501 24.366 14.7032 23.2734 14.7032ZM22.9354 20.4496C22.9354 18.7695 24.2974 17.4074 25.9776 17.4074C27.6577 17.4074 29.0198 18.7695 29.0198 20.4496C29.0198 22.1298 27.6577 23.4918 25.9776 23.4918C24.2974 23.4918 22.9354 22.1298 22.9354 20.4496ZM18.5411 24.1679C17.981 24.1679 17.527 24.6219 17.527 25.1819C17.527 25.742 17.981 26.196 18.5411 26.196C19.1011 26.196 19.5551 25.742 19.5551 25.1819C19.5551 24.6219 19.1011 24.1679 18.5411 24.1679Z" fill="white"/>
</svg>
