<svg width="49" height="49" viewBox="0 0 49 49" fill="none" xmlns="http://www.w3.org/2000/svg">
<path fill-rule="evenodd" clip-rule="evenodd" d="M20.0742 20.6138C20.0742 18.1003 22.1119 16.0626 24.6255 16.0626C27.139 16.0626 29.1767 18.1003 29.1767 20.6138C29.1767 23.1274 27.139 25.165 24.6255 25.165C22.1119 25.165 20.0742 23.1274 20.0742 20.6138ZM24.6255 17.8831C23.1173 17.8831 21.8947 19.1057 21.8947 20.6138C21.8947 22.122 23.1173 23.3445 24.6255 23.3445C26.1336 23.3445 27.3562 22.122 27.3562 20.6138C27.3562 19.1057 26.1336 17.8831 24.6255 17.8831Z" fill="white"/>
<path fill-rule="evenodd" clip-rule="evenodd" d="M16.6838 19.5546C17.016 15.5238 20.3844 12.4216 24.4289 12.4216H24.822C28.8665 12.4216 32.2349 15.5238 32.5671 19.5546C32.7452 21.7152 32.0778 23.8607 30.7055 25.539L26.3426 30.8746C25.4551 31.96 23.7958 31.96 22.9083 30.8746L18.5454 25.539C17.1731 23.8607 16.5057 21.7152 16.6838 19.5546ZM24.4289 14.2421C21.3318 14.2421 18.7525 16.6176 18.4981 19.7041C18.3588 21.3947 18.881 23.0734 19.9547 24.3866L24.3176 29.7223C24.4767 29.9168 24.7742 29.9168 24.9333 29.7223L29.2962 24.3866C30.3699 23.0734 30.8922 21.3947 30.7528 19.7041C30.4984 16.6176 27.9191 14.2421 24.822 14.2421H24.4289Z" fill="white"/>
<path d="M19.3713 29.5165C19.5961 29.0668 19.4139 28.5201 18.9642 28.2953C18.5146 28.0704 17.9678 28.2527 17.743 28.7023L15.3157 33.557C15.1746 33.8391 15.1897 34.1742 15.3556 34.4426C15.5214 34.7109 15.8144 34.8743 16.1299 34.8743H33.1211C33.4365 34.8743 33.7295 34.7109 33.8954 34.4426C34.0612 34.1742 34.0763 33.8391 33.9352 33.557L31.5079 28.7023C31.2831 28.2527 30.7363 28.0704 30.2867 28.2953C29.837 28.5201 29.6548 29.0668 29.8796 29.5165L31.6483 33.0538H17.6027L19.3713 29.5165Z" fill="white"/>
</svg>
