<svg width="49" height="48" viewBox="0 0 49 48" fill="none" xmlns="http://www.w3.org/2000/svg">
<path d="M26.5678 21.0904C26.5678 20.5541 26.133 20.1192 25.5967 20.1192H17.8274C17.291 20.1192 16.8562 20.5541 16.8562 21.0904C16.8562 21.6268 17.291 22.0616 17.8274 22.0616H25.5967C26.133 22.0616 26.5678 21.6268 26.5678 21.0904Z" fill="white"/>
<path d="M25.2729 24.9751C25.2729 24.4387 24.8381 24.0039 24.3018 24.0039H17.8274C17.291 24.0039 16.8562 24.4387 16.8562 24.9751C16.8562 25.5114 17.291 25.9462 17.8274 25.9462H24.3018C24.8381 25.9462 25.2729 25.5114 25.2729 24.9751Z" fill="white"/>
<path d="M25.5967 27.8886C26.133 27.8886 26.5678 28.3234 26.5678 28.8597C26.5678 29.3961 26.133 29.8309 25.5967 29.8309H17.8274C17.291 29.8309 16.8562 29.3961 16.8562 28.8597C16.8562 28.3234 17.291 27.8886 17.8274 27.8886H25.5967Z" fill="white"/>
<path fill-rule="evenodd" clip-rule="evenodd" d="M16.8562 36.629H33.6897C35.6564 36.629 37.2506 35.0348 37.2506 33.0681V25.9462C37.2506 25.4099 36.8158 24.9751 36.2795 24.9751H32.0711V14.8662C32.0711 13.023 29.9878 11.9509 28.4879 13.0222L28.2613 13.1841C27.2506 13.906 25.8816 13.9036 24.8663 13.1783C23.1779 11.9723 20.8936 11.9723 19.2052 13.1783C18.1898 13.9036 16.8208 13.906 15.8102 13.1841L15.5835 13.0222C14.0837 11.9509 12.0004 13.023 12.0004 14.8662V31.7732C12.0004 34.455 14.1744 36.629 16.8562 36.629ZM20.3342 14.7588C21.3472 14.0352 22.7243 14.0352 23.7373 14.7588C25.4233 15.9631 27.6995 15.9723 29.3902 14.7646L29.6169 14.6027C29.8311 14.4497 30.1288 14.6028 30.1288 14.8662V33.0681C30.1288 33.651 30.2688 34.2011 30.517 34.6867H16.8562C15.2471 34.6867 13.9427 33.3823 13.9427 31.7732V14.8662C13.9427 14.6028 14.2403 14.4497 14.4546 14.6027L14.6812 14.7646C16.372 15.9723 18.6482 15.9631 20.3342 14.7588ZM32.0711 33.0681V26.9174H35.3083V33.0681C35.3083 33.962 34.5836 34.6867 33.6897 34.6867C32.7958 34.6867 32.0711 33.962 32.0711 33.0681Z" fill="white"/>
</svg>
