<svg width="36" height="37" viewBox="0 0 36 37" fill="none" xmlns="http://www.w3.org/2000/svg">
<path fill-rule="evenodd" clip-rule="evenodd" d="M11.625 11.752C11.625 8.23114 14.4792 5.37695 18 5.37695C21.5208 5.37695 24.375 8.23114 24.375 11.752C24.375 15.2728 21.5208 18.127 18 18.127C14.4792 18.127 11.625 15.2728 11.625 11.752ZM18 7.62695C15.7218 7.62695 13.875 9.47378 13.875 11.752C13.875 14.0301 15.7218 15.877 18 15.877C20.2782 15.877 22.125 14.0301 22.125 11.752C22.125 9.47378 20.2782 7.62695 18 7.62695Z" fill="white"/>
<path fill-rule="evenodd" clip-rule="evenodd" d="M12 22.627C10.136 22.627 8.625 24.138 8.625 26.002V27.7844C8.625 27.8115 8.64467 27.8347 8.67145 27.839C14.8496 28.8477 21.1504 28.8477 27.3285 27.839C27.3553 27.8347 27.375 27.8115 27.375 27.7844V26.002C27.375 24.138 25.864 22.627 24 22.627H23.4887C23.4492 22.627 23.4099 22.6332 23.3723 22.6455L22.074 23.0694C19.4268 23.9338 16.5732 23.9338 13.926 23.0694L12.6277 22.6455C12.5901 22.6332 12.5508 22.627 12.5113 22.627H12ZM6.375 26.002C6.375 22.8954 8.8934 20.377 12 20.377H12.5113C12.788 20.377 13.063 20.4207 13.3261 20.5066L14.6244 20.9305C16.8178 21.6468 19.1822 21.6468 21.3756 20.9305L22.6739 20.5066C22.937 20.4207 23.212 20.377 23.4887 20.377H24C27.1066 20.377 29.625 22.8954 29.625 26.002V27.7844C29.625 28.9142 28.8062 29.8776 27.6911 30.0596C21.2729 31.1075 14.7271 31.1075 8.30891 30.0596C7.19383 29.8776 6.375 28.9142 6.375 27.7844V26.002Z" fill="white"/>
</svg>
